PathFileType	4	(X/Y/Z)	SUBJ59_1_walk_RCNL2025.trc
DataRate	CameraRate	NumFrames	NumMarkers	Units	OrigDataRate	OrigDataStartFrame	OrigNumFrames
100	100	5	25	mm	100	130	345
Frame#	Time	R_Shoulder			L_Shoulder			C7			J_Notch			R_Elbow			L_Elbow			R_Wrist			L_Wrist			R_Asis			L_Asis			Sacral			Thoracic			Sternum			R_Thigh_Lateral			R_Knee_Lateral			R_Shank_Lateral			R_Ankle_Lateral			R_Heel			R_Toe			L_Thigh_Lateral			L_Knee_Lateral			L_Shank_Lateral			L_Ankle_Lateral			L_Heel			L_Toe		
		X1	Y1	Z1	X2	Y2	Z2	X3	Y3	Z3	X4	Y4	Z4	X5	Y5	Z5	X6	Y6	Z6	X7	Y7	Z7	X8	Y8	Z8	X9	Y9	Z9	X10	Y10	Z10	X11	Y11	Z11	X12	Y12	Z12	X13	Y13	Z13	X14	Y14	Z14	X15	Y15	Z15	X16	Y16	Z16	X17	Y17	Z17	X18	Y18	Z18	X19	Y19	Z19	X20	Y20	Z20	X21	Y21	Z21	X22	Y22	Z22	X23	Y23	Z23	X24	Y24	Z24	X25	Y25	Z25
130	1.29000000	-888.753296	1429.539062	512.349182	-852.781921	1473.391724	114.875191	-962.547546	1536.454102	303.943298	-802.182068	1437.636841	312.561859	-983.361450	1118.576050	586.611877	-791.842834	1150.338745	-10.059675	-964.754913	838.788452	579.915985	-649.197601	929.770142	33.094749	-800.068115	980.355347	419.573364	-806.678650	975.722107	191.986710	-1021.452820	1000.419617	311.137238	-1028.114136	1320.578979	278.344269	-747.588928	1243.820679	301.976746	-776.633118	593.777771	519.963562	-747.354065	506.233673	463.419464	-719.836548	311.630615	539.891479	-653.376099	68.463142	431.192139	-679.874512	50.420094	378.726929	-491.330475	90.821983	414.487305	-956.067993	594.288940	129.606476	-977.724854	490.141693	194.167908	-1031.593872	296.475342	142.031281	-1091.552856	77.652466	233.315231	-1138.232910	60.511364	287.227386	-934.545105	34.748844	269.825653
131	1.30000000	-879.305542	1427.034180	513.603699	-842.507935	1472.431763	116.379303	-952.711426	1534.670166	305.356964	-792.267883	1435.907349	313.972778	-974.393494	1115.890625	586.652893	-780.300781	1150.254028	-9.766313	-956.866852	836.018494	579.432434	-636.448792	930.557526	33.905159	-789.044373	978.437256	419.214905	-796.760986	974.174316	191.570404	-1010.904114	998.718811	312.383148	-1018.228882	1318.905273	279.064423	-737.532654	1242.229126	302.566040	-770.539673	589.589783	518.935120	-738.346802	503.755524	461.893188	-705.366150	310.087616	538.574097	-630.964050	68.583710	430.357880	-656.830688	49.806244	377.938904	-469.175171	95.098137	414.347992	-949.119995	593.435425	129.603409	-971.676575	489.538239	194.273392	-1028.024902	296.602386	142.356049	-1091.068848	78.450455	233.335709	-1137.922607	61.725300	287.261719	-934.529541	34.745697	269.834717
132	1.31000000	-869.660156	1424.568115	514.912598	-832.173401	1471.534546	117.959755	-942.787659	1532.946777	306.898102	-782.239014	1434.238892	315.444427	-965.182922	1113.250244	586.776978	-768.976318	1150.160278	-9.358313	-948.695526	833.302063	579.083130	-624.225861	931.161133	34.807593	-777.926208	976.548523	418.818329	-786.845520	972.587219	191.179367	-1000.254456	997.102966	313.685028	-1008.215332	1317.280518	279.939056	-727.369751	1240.694214	303.168274	-764.108582	585.782837	517.905396	-729.127380	501.488098	460.475494	-691.505249	308.713776	537.332947	-611.121338	68.651413	429.388550	-636.537964	49.297573	377.053833	-449.630707	98.418694	413.797272	-942.009949	592.640259	129.596588	-965.484680	488.985382	194.335144	-1024.427368	296.855835	142.572937	-1090.528931	79.389771	233.286652	-1137.571045	63.140160	287.211670	-934.496216	34.725838	269.819489
133	1.32000000	-859.815491	1422.161987	516.277222	-821.790100	1470.729736	119.603630	-932.777405	1531.305176	308.571716	-772.089722	1432.656982	316.969238	-955.721680	1110.676514	586.986572	-757.892273	1150.073364	-8.837751	-940.236328	830.659912	578.869446	-612.549530	931.591003	35.789889	-766.704956	974.722961	418.417297	-776.919983	970.980774	190.835617	-989.497620	995.589294	315.016174	-998.062195	1315.717163	280.957214	-717.084717	1239.244141	303.780640	-757.005798	582.496643	516.908081	-719.644653	499.438751	459.183594	-678.320129	307.411041	536.150269	-593.922058	68.473175	428.233032	-619.071411	48.714764	376.000061	-432.707184	100.543831	412.784515	-934.782959	591.941833	129.574890	-959.156250	488.510406	194.343018	-1020.788330	297.223450	142.679596	-1089.936035	80.487358	233.154358	-1137.167603	64.773338	287.062958	-934.443481	34.688820	269.774689
134	1.33000000	-849.773804	1419.837402	517.698120	-811.372498	1470.047729	121.298164	-922.682434	1529.765015	310.378387	-761.814575	1431.188354	318.539886	-946.003723	1108.191284	587.283691	-747.070374	1150.009399	-8.209756	-931.484039	828.112183	578.791290	-601.418518	931.864990	36.829824	-755.366821	973.000488	418.051086	-766.929932	969.396973	190.546722	-978.625244	994.195496	316.349609	-987.762024	1314.229248	282.103363	-706.659790	1237.911499	304.404480	-748.962341	579.827148	515.981262	-709.880432	497.598877	458.029236	-665.897095	306.079468	534.996521	-579.354248	67.919121	426.876038	-604.427490	47.942528	374.756317	-418.345734	101.296036	411.286377	-927.468323	591.368652	129.532425	-952.681274	488.129547	194.294968	-1017.083252	297.695099	142.684341	-1089.291504	81.762512	232.927567	-1136.699951	66.640945	286.808441	-934.369019	34.639217	269.696136
